<?xml version="1.0" standalone="no"?>
<!DOCTYPE svg PUBLIC "-//W3C//DTD SVG 20010904//EN"
 "http://www.w3.org/TR/2001/REC-SVG-20010904/DTD/svg10.dtd">
<svg version="1.0" xmlns="http://www.w3.org/2000/svg"
 width="500.000000pt" height="500.000000pt" viewBox="0 0 500.000000 500.000000"
 preserveAspectRatio="xMidYMid meet">
<metadata>
Created by potrace 1.14, written by Peter Selinger 2001-2017
</metadata>
<g transform="translate(0.000000,500.000000) scale(0.100000,-0.100000)"
fill="#000000" stroke="none">
<path d="M2437 4724 c-1 -1 -38 -5 -82 -8 -44 -4 -87 -9 -95 -11 -8 -2 -42 -6
-75 -10 -76 -8 -278 -57 -350 -86 -11 -4 -54 -20 -95 -35 -144 -52 -326 -149
-470 -250 -146 -102 -280 -226 -401 -369 -19 -22 -38 -45 -44 -51 -5 -6 -19
-23 -30 -39 -11 -15 -29 -39 -40 -54 -34 -43 -75 -110 -75 -121 0 -5 -3 -10
-7 -10 -5 0 -13 -10 -19 -23 -6 -12 -28 -56 -50 -97 -59 -113 -104 -224 -163
-407 -19 -60 -56 -232 -66 -303 -33 -258 -22 -622 25 -810 5 -19 11 -46 14
-60 33 -180 155 -479 269 -665 115 -186 322 -422 482 -549 71 -57 249 -176
263 -176 6 0 12 -4 14 -9 5 -15 286 -146 383 -180 105 -36 278 -79 350 -87 28
-3 53 -8 56 -9 40 -25 526 -24 654 1 17 3 39 7 50 9 69 12 102 20 206 50 198
57 417 153 559 245 25 17 52 33 60 37 8 3 17 9 20 13 3 3 28 21 55 40 28 18
57 40 66 49 9 9 36 32 59 51 58 46 150 139 230 229 36 41 70 79 76 85 5 6 47
67 93 136 88 133 166 283 220 420 18 47 37 95 42 107 36 92 87 329 105 488 10
90 12 393 3 466 -5 35 -11 87 -14 114 -3 28 -8 57 -10 65 -2 8 -7 30 -10 49
-10 56 -52 210 -84 301 -64 186 -138 336 -240 488 -31 46 -60 91 -66 100 -5
10 -12 19 -15 22 -3 3 -17 21 -32 40 -88 115 -254 276 -393 381 -268 202 -574
335 -926 404 -19 4 -197 23 -219 24 -72 3 -282 6 -283 5z"/>
</g>
</svg>
